<?xml version="1.0" encoding="UTF-8"?>
<svg id="Layer_1" data-name="Layer 1" xmlns="http://www.w3.org/2000/svg" viewBox="0 0 32 32">
  <path d="M30.03,12.19c-.15-.16-.34-.26-.55-.29l-8.72-1.33-3.9-8.29c-.11-.24-.31-.42-.56-.51-.24-.08-.5-.06-.73,.06-.19,.1-.34,.26-.43,.45l-3.9,8.29-8.71,1.33c-.52,.08-.89,.58-.81,1.12,.03,.21,.13,.41,.27,.56l6.32,6.46-1.49,9.12c-.09,.54,.26,1.05,.78,1.14,.06,0,.11,.01,.17,.01,.16,0,.31-.04,.45-.12l7.79-4.3,7.79,4.3c.23,.12,.49,.15,.73,.08,.25-.08,.46-.25,.58-.49,.1-.19,.13-.41,.09-.62l-1.49-9.12,6.31-6.46c.37-.38,.38-1,.02-1.39Zm-19.75,7.67c.05-.32-.05-.64-.27-.87l-5.31-5.43,7.32-1.11c.31-.05,.59-.25,.72-.55l3.26-6.92,3.26,6.92c.14,.3,.41,.5,.72,.55l7.32,1.12-5.31,5.43c-.22,.23-.32,.55-.27,.87l1.25,7.64-6.52-3.6c-.14-.08-.3-.12-.45-.12s-.31,.04-.45,.12l-6.52,3.59,1.25-7.64Z"/>
</svg>