<?xml version="1.0" encoding="UTF-8"?>
<svg id="svg16" xmlns="http://www.w3.org/2000/svg" viewBox="0 0 283.52 83.47">
  <defs>
    <style>
      .cls-1 {
        fill: #00aff0;
        font-family: Marguerite, Marguerite;
        font-size: 48.6px;
      }

      .cls-2 {
        letter-spacing: 0em;
      }
    </style>
  </defs>
  <rect x="92.48" y="21.96" width="2.74" height="40.76"/>
  <path d="M31.28,25.61c-11.79,.03-21.33,9.62-21.3,21.41,.03,11.79,9.62,21.33,21.41,21.3,11.78-.03,21.31-9.59,21.3-21.37-.02-11.8-9.61-21.36-21.41-21.34Zm0,40.47h0c-10.56-.01-19.11-8.6-19.08-19.16,.02-10.26,8.13-18.67,18.38-19.07,10.56-.41,19.45,7.81,19.86,18.36,0,.25,.01,.49,.01,.74-.02,10.58-8.6,19.14-19.17,19.13Z"/>
  <path d="M70.87,33.58c-5.19,0-8.38,2.63-10.28,5.98v-5.31h-2.73v28.48h2.73v-16.47c0-5.92,4.3-10.17,9.88-10.17s9.04,3.85,9.04,9.71v16.92h2.74v-17.4c0-6.81-4.19-11.73-11.39-11.73Z"/>
  <path d="M102.97,34.25l13.67,28.31c-2.12,4.97-4.08,6.7-7.04,6.7-1.68,.06-3.35-.3-4.85-1.06l-.95,2.4c1.76,.83,3.7,1.25,5.65,1.23,4.08,0,6.98-2.13,9.49-8.1l12.34-29.49h-3.02l-10.27,25.46-11.84-25.46h-3.18Z"/>
  <text class="cls-1" transform="translate(136.67 62.48)"><tspan x="0" y="0">F</tspan><tspan class="cls-2" x="23.62" y="0">e</tspan><tspan x="46.5" y="0">iras</tspan></text>
  <g>
    <path d="M37.15,56.3h-14.84c-.31,0-.61-.11-.81-.3-.21-.19-.3-.45-.27-.71l1.68-12.31c.06-.46,.53-.8,1.08-.8h11.48c.56,0,1.02,.35,1.08,.8l1.68,12.31c.04,.26-.06,.51-.27,.71-.21,.19-.5,.3-.81,.3Zm-13.62-1.81h12.4l-1.43-10.5h-9.53l-1.43,10.5Z"/>
    <path d="M32.54,50.87h-5.63c-.3,0-.55-.25-.55-.55v-2.17c0-.3,.24-.55,.55-.55h5.63c.3,0,.55,.25,.55,.55v2.17c0,.3-.24,.55-.55,.55Zm-5.09-1.09h4.54v-1.08h-4.54v1.08Z"/>
    <path d="M37.45,56.21c-.11,0-.22-.02-.33-.07-.24-.11-.41-.33-.45-.59l-2.05-12.33c-.04-.26,.05-.52,.24-.7l2.21-2.11c.2-.2,.49-.27,.77-.19,.27,.08,.48,.3,.55,.57l3.02,12.49c.08,.33-.06,.68-.36,.86l-3.19,1.95c-.13,.08-.27,.12-.41,.12Zm-1.2-12.84l1.79,10.75,1.69-1.03-2.56-10.59-.92,.87Z"/>
    <path d="M24.01,43.67c-.26,0-.51-.13-.67-.36-.24-.37-.14-.86,.23-1.1l2.9-1.89c.13-.08,.28-.13,.43-.13h10.7c.44,0,.79,.36,.79,.79s-.36,.79-.79,.79h-10.47l-2.7,1.76c-.13,.09-.28,.13-.43,.13Z"/>
    <path d="M26.48,43.67s-.1,0-.15-.01c-.43-.08-.71-.5-.63-.93l.98-5.09c.7-1.59,2.06-2.52,3.61-2.43,1.55,.02,2.88,.93,3.48,2.35,.05,.11,.07,.23,.06,.36l-.31,5c-.03,.44-.4,.75-.84,.74-.44-.03-.77-.4-.74-.84l.3-4.8c-.45-.88-1.3-1.21-1.97-1.22-.68,.03-1.63,.33-2.08,1.32l-.92,4.91c-.07,.38-.4,.64-.78,.64Z"/>
    <path d="M34.65,41.78c-.36,0-.68-.24-.77-.6l-.95-3.85c-.26-.38-.7-.67-1.25-.82-.76-.2-1.61-.09-2.23,.27-.35,.2-.55,.62-.51,1.05l.25,3.09c.03,.44-.29,.82-.73,.85-.42,.02-.82-.29-.85-.73l-.25-3.09c-.08-1.03,.42-2.03,1.29-2.55,.98-.58,2.26-.74,3.43-.44,1,.26,1.81,.84,2.27,1.64,.04,.07,.07,.14,.08,.21l.98,3.97c.1,.43-.15,.86-.58,.96-.06,.02-.13,.02-.19,.02Z"/>
  </g>
</svg>